{"title":"In.Their.Skin.2012.DVDRip.XviD-playXD","uid":8264284,"size":746614942,"categoryP":"video","categoryS":"movies","magnet":"?xt=urn:btih:73941ba28ce8bd2ce3b4f164d96e84de75e59c27&amp;dn=In.Their.Skin.2012.DVDRip.XviD-playXD&amp;tr=udp%3A%2F%2Ftracker.openbittorrent.com%3A80&amp;tr=udp%3A%2F%2Fopen.demonii.com%3A1337&amp;tr=udp%3A%2F%2Ftracker.coppersurfer.tk%3A6969&amp;tr=udp%3A%2F%2Fexodus.desync.com%3A6969","seeders":1,"leechers":0,"uploader":"sceneline","files":6,"time":1363455838,"description":"-\n\n      the fast  and The Hottest Private Tracker on the net\n\nPlease Seed back to make the speed Faster!!\n ............ NFO .............\n-General\nComplete name                            : E:ENCODEe2.avi\nFormat                                   : AVI\nFormat/Info                              : Audio Video Interleave\nFile size                                : 704 MiB\nDuration                                 : 1h 36mn\nOverall bit rate                         : 1 020 Kbps\nWriting application                      : VirtualDubMod 1.5.10.2 (build 2540/release)\nWriting library                          : VirtualDubMod build 2540/release\n\nVideo\nID                                       : 0\nFormat                                   : MPEG-4 Visual\nFormat profile                           : Advanced Simple@L5\nFormat settings, BVOP                    : 3\nFormat settings, QPel                    : Yes\nFormat settings, GMC                     : No warppoints\nFormat settings, Matrix                  : Default (H.263)\nCodec ID                                 : XVID\nCodec ID/Hint                            : XviD\nDuration                                 : 1h 36mn\nBit rate                                 : 883 Kbps\nWidth                                    : 640 pixels\nHeight                                   : 272 pixels\nDisplay aspect ratio                     : 2.35:1\nFrame rate                               : 23.976 fps\nColor space                              : YUV\nChroma subsampling                       : 4:2:0\nBit depth                                : 8 bits\nScan type                                : Progressive\nCompression mode                         : Lossy\nBits/(Pixel*Frame)                       : 0.211\nStream size                              : 609 MiB (87%)\nWriting library                          : XviD 1.2.1 (UTC 2008-12-04)\n\nAudio\nID                                       : 1\nFormat                                   : MPEG Audio\nFormat version                           : Version 1\nFormat profile                           : Layer 3\nMode                                     : Joint stereo\nMode extension                           : MS Stereo\nCodec ID                                 : 55\nCodec ID/Hint                            : MP3\nDuration                                 : 1h 36mn\nBit rate mode                            : Constant\nBit rate                                 : 128 Kbps\nChannel(s)                               : 2 channels\nSampling rate                            : 48.0 KHz\nCompression mode                         : Lossy\nStream size                              : 88.3 MiB (13%)\nAlignment                                : Aligned on interleaves\nInterleave, duration                     : 42 ms (1.00 video frame)\nInterleave, preload duration             : 504 ms\nWriting library                          : LAME3.99r\nEncoding settings                        : -m j -V 4 -q 2 -lowpass 17 -b 128","torrent":{"xt":"urn:btih:73941ba28ce8bd2ce3b4f164d96e84de75e59c27","amp;dn":"In.Their.Skin.2012.DVDRip.XviD-playXD","amp;tr":["udp%3A%2F%2Ftracker.openbittorrent.com%3A80","udp%3A%2F%2Fopen.demonii.com%3A1337","udp%3A%2F%2Ftracker.coppersurfer.tk%3A6969","udp%3A%2F%2Fexodus.desync.com%3A6969"],"infoHash":"73941ba28ce8bd2ce3b4f164d96e84de75e59c27","infoHashBuffer":{"type":"Buffer","data":[115,148,27,162,140,232,189,44,227,180,241,100,217,110,132,222,117,229,156,39]},"announce":[],"urlList":[]}}